<svg width="20" height="20" viewBox="0 0 71 80" fill="none" xmlns="http://www.w3.org/2000/svg"><path d="M68.038 24.559 26.744.724a5.438 5.438 0 0 0-5.422 0L2.712 11.469A5.438 5.438 0 0 0 0 16.165v47.669a5.438 5.438 0 0 0 2.712 4.697l18.622 10.745a5.439 5.439 0 0 0 5.422 0l41.283-23.835a5.438 5.438 0 0 0 2.712-4.696v-21.49a5.438 5.438 0 0 0-2.713-4.696Z" fill="#36364C"></path><path d="M42.366 67.874a2.102 2.102 0 0 0 0-3.643l-7.275-4.2-7.274-4.2a2.102 2.102 0 0 0-3.155 1.821v16.8a2.103 2.103 0 0 0 3.155 1.82l14.549-8.398Z" fill="#A564A8"></path><path d="m21.773 2.612-16.72 9.653a1.644 1.644 0 0 0 0 2.847l15.55 8.979a6.894 6.894 0 0 0 6.896 0l15.543-8.974a1.644 1.644 0 0 0 0-2.848L26.316 2.612a4.544 4.544 0 0 0-4.543 0Z" fill="#5FC2A9"></path><path d="M1.99 39.865v24.562a2.222 2.222 0 0 0 1.11 1.925l17.695 10.216a1.763 1.763 0 0 0 2.645-1.527V30.833a6.411 6.411 0 0 0-3.206-5.553L4.6 16.253a1.74 1.74 0 0 0-2.61 1.508v22.104Z" fill="#FF4E26"></path><path d="M68.798 48.284V28.342a2.097 2.097 0 0 0-1.048-1.816L49.98 16.267a1.756 1.756 0 0 0-2.634 1.521V38.32a2.096 2.096 0 0 0 1.048 1.816l17.258 9.963a2.097 2.097 0 0 0 3.145-1.815ZM27.767 50.123l17.13-9.89a2.48 2.48 0 0 0 1.24-2.148v-19.83a2.033 2.033 0 0 0-3.051-1.762l-14.624 8.444a7.601 7.601 0 0 0-3.8 6.583v16.808a2.07 2.07 0 0 0 3.105 1.795ZM27.474 54.236l18.145 10.476a2.223 2.223 0 0 0 2.222 0l18.31-10.571a1.36 1.36 0 0 0 0-2.358l-18.31-10.57a2.221 2.221 0 0 0-2.222 0L27.474 51.687a1.471 1.471 0 0 0 0 2.548Z" fill="#fff"></path><path d="m54.515 44.092-7.73-13.422-7.73 13.422 7.73 4.928 7.73-4.928Zm-7.164-4.502V33.9l4.897 8.494-4.897-2.804Zm5.35 4.332-5.35 3.398v-6.428l5.35 3.03Zm-6.484-4.332-4.87 2.775 4.87-8.464v5.69Zm0 1.302v6.428l-5.35-3.398 5.35-3.03Z" fill="#36364C"></path><path d="m46.785 50.604-7.73-4.927 7.73 11.297 7.73-11.297-7.73 4.927Zm-.595.963.028.028v2.577l-3.114-4.587 3.086 1.982Zm4.304-1.982-3.144 4.587v-2.577l.028-.028 3.116-1.982Z" fill="#36364C"></path></svg>
