<?xml version="1.0" encoding="UTF-8" standalone="no"?>
<svg
   id="Layer_2"
   viewBox="0 0 2000 2000"
   version="1.1"
   sodipodi:docname="eof_logo.svg"
   inkscape:version="1.3.2 (091e20ef0f, 2023-11-25, custom)"
   xmlns:inkscape="http://www.inkscape.org/namespaces/inkscape"
   xmlns:sodipodi="http://sodipodi.sourceforge.net/DTD/sodipodi-0.dtd"
   xmlns="http://www.w3.org/2000/svg"
   xmlns:svg="http://www.w3.org/2000/svg">
  <sodipodi:namedview
     id="namedview6"
     pagecolor="#ffffff"
     bordercolor="#666666"
     borderopacity="1.0"
     inkscape:showpageshadow="2"
     inkscape:pageopacity="0.0"
     inkscape:pagecheckerboard="0"
     inkscape:deskcolor="#d1d1d1"
     inkscape:zoom="0.4255"
     inkscape:cx="1000"
     inkscape:cy="929.49471"
     inkscape:window-width="2558"
     inkscape:window-height="1033"
     inkscape:window-x="0"
     inkscape:window-y="46"
     inkscape:window-maximized="1"
     inkscape:current-layer="Layer_2" />
  <defs
     id="defs1">
    <style
       id="style1">.cls-1{fill:#cdffcc;}.cls-1,.cls-2,.cls-3,.cls-4,.cls-5{stroke-width:0px;}.cls-2{fill:#340b0b;}.cls-3{fill:#33f;}.cls-4{fill:#8e8eff;}.cls-5{fill:#fff;}</style>
  </defs>
  <path
     class="cls-4"
     d="M 1802.9759,1468.5321 999.9268,1870.0566 196.87769,1468.5321 74.342925,1529.7995 999.9268,1992.5913 1925.5106,1529.7995 Z"
     id="path1" />
  <path
     class="cls-2"
     d="m 904.87094,1114.519 63.63966,31.8116 V 921.95259 C 854.80598,861.49244 262.09887,582.32143 133.55104,520.9552 v 846.2114 c 74.24901,37.1327 742.77019,371.3768 834.95956,417.488 V 1595.103 C 872.30154,1546.9985 412.54084,1317.1181 326.75992,1274.2359 v -112.189 c 146.14222,73.0629 492.23125,246.1239 641.75068,320.8671 V 1258.536 C 852.17012,1200.3658 449.7889,999.16695 326.75992,937.66893 V 825.47994 l 578.11102,289.05546 z"
     id="path2" />
  <path
     class="cls-3"
     d="M 999.9268,5.2812328 71.212836,469.63821 v 936.06139 c 54.298814,27.1495 849.077914,424.539 928.713964,464.357 83.5404,-41.7785 870.9555,-435.4778 928.7139,-464.357 V 469.63821 Z M 968.5106,1146.347 C 957.2917,1140.7294 357.89607,841.03154 326.75992,825.47994 V 937.66893 C 452.02939,1000.3037 850.09438,1199.3444 968.5106,1258.536 v 224.378 C 817.75561,1407.5448 474.03886,1235.6699 326.75992,1162.0469 v 112.189 c 83.21095,41.5972 548.32575,274.1629 641.75068,320.8671 v 189.5516 C 872.54865,1736.6818 211.17726,1405.9962 133.55104,1367.1666 V 520.9552 C 265.67376,584.03474 851.56058,859.89445 968.5106,921.95259 V 1146.3306 Z M 197.80024,476.03018 999.9103,74.966905 1802.0533,476.03018 999.9103,863.05749 Z M 1866.3025,728.85903 1224.3048,1049.8579 v 112.189 L 1866.3025,841.04802 V 1065.426 l -641.9977,320.9989 v 301.7405 c -4.0691,2.0428 -192.3852,96.1926 -196.339,98.1695 V 923.63295 c 117.3948,-62.32172 706.5599,-339.7959 838.3367,-402.67775 z"
     id="path3" />
  <polygon
     class="cls-5"
     points="508.84,692.75 995.74,449.3 1482.65,692.75 995.74,927.68 "
     id="polygon3"
     transform="matrix(1.6474154,0,0,1.6474154,-640.47062,-665.21685)" />
  <path
     class="cls-4"
     d="m 1224.3048,1049.8579 v 112.189 L 1866.3025,841.04802 V 1065.426 l -641.9977,320.9989 v 301.7405 c -4.0691,2.0428 -192.3852,96.1926 -196.339,98.1695 V 923.63295 c 117.3948,-62.32172 706.5599,-339.7959 838.3367,-402.67775 v 207.90383 z"
     id="path4" />
  <path
     class="cls-1"
     d="M 326.75992,825.47994 V 937.66893 C 452.02939,1000.3037 850.09438,1199.3444 968.5106,1258.536 v 224.378 C 817.75561,1407.5448 474.03886,1235.6699 326.75992,1162.0469 v 112.189 c 83.21095,41.5972 548.32575,274.1629 641.75068,320.8671 v 189.5516 C 872.54865,1736.6818 211.17726,1405.9962 133.55104,1367.1666 V 520.9552 C 265.67376,584.03474 851.56058,859.89445 968.5106,921.95259 V 1146.3306 C 957.2917,1140.7129 357.89607,841.01507 326.75992,825.46347 Z"
     id="path5" />
  <path
     class="cls-3"
     d="M 1448.6992,460.84101 999.9268,685.21899 551.15438,460.84101 999.9268,236.46303 Z"
     id="path6" />
</svg>
